<?xml version="1.0" encoding="UTF-8"?>
<svg id="_레이어_1" data-name="레이어_1" xmlns="http://www.w3.org/2000/svg" version="1.1" xmlns:xlink="http://www.w3.org/1999/xlink" viewBox="0 0 274.3 48.3">
  <!-- Generator: Adobe Illustrator 29.2.1, SVG Export Plug-In . SVG Version: 2.1.0 Build 116)  -->
  <defs>
    <style>
      .st0 {
        fill: #fff;
      }

      .st1 {
        fill: #c40858;
      }
    </style>
  </defs>
  <g>
    <path class="st1" d="M110.2,8c0-.5.1-.8.4-1.1.3-.3.6-.4,1.1-.4s.8.1,1.1.4c.3.3.4.6.4,1.1v10.8c0,.5-.1.8-.4,1.1-.3.3-.6.4-1.1.4s-.8-.1-1.1-.4c-.3-.3-.4-.6-.4-1.1V8Z"/>
    <path class="st1" d="M126.1,15.3c0-.1.2-.3.2-.5.2-.4.4-.7.5-.9.3-.4.6-.6,1-.6s.6.1.8.3c.2.2.4.5.4.7s0,.3-.1.6c0,.2-.2.4-.3.7s-.3.5-.4.7c-.2.2-.3.4-.5.6l1.1,1.3c.2.2.3.5.3.7s-.1.6-.4.8-.6.4-1,.4-.4,0-.5-.1c-.1,0-.3-.2-.4-.4l-.9-1c-.6.6-1.2,1-1.9,1.2s-1.5.4-2.4.4-1.3-.1-1.8-.3c-.5-.2-1-.5-1.3-.8-.3-.4-.6-.7-.8-1.2-.2-.4-.2-.9-.2-1.3,0-.9.3-1.7.8-2.4.5-.7,1.2-1.2,2.1-1.7-.4-.5-.7-.9-.9-1.3-.2-.4-.3-.8-.3-1.4,0-1,.4-1.8,1.1-2.4s1.6-.9,2.6-.9,1.3,0,1.8.3c.5.2.9.5,1.2.8.3.3.5.7.6,1,.1.4.2.7.2,1.1,0,.7-.2,1.4-.6,2-.4.6-1,1-1.7,1.4l1.9,2.2ZM122,14.2c-.6.3-1,.7-1.4,1s-.5.7-.5,1.2.2,1,.5,1.3c.3.3.8.5,1.3.5s.9-.1,1.3-.3c.4-.2.7-.5,1.1-.8l-2.4-2.9ZM121.8,10.7c.2.3.5.6.9.9h0c.4-.3.8-.6,1.1-.9.3-.3.4-.6.4-1.1s-.1-.6-.4-.9c-.3-.2-.6-.4-1-.4s-.7.1-1,.3-.4.5-.4.8,0,.8.3,1Z"/>
    <path class="st1" d="M139,19.2c-.1.4-.4.7-.7.8-.3.1-.7.2-1.2.2s-.9,0-1.2-.2c-.3-.1-.5-.4-.7-.8l-3.7-10.5c-.1-.3-.2-.6-.2-.9,0-.5.1-.8.4-1,.3-.2.7-.3,1.1-.3s.7.1,1,.3c.2.2.4.6.6,1l2.7,9.1h0l2.8-9.1c.3-.9.7-1.3,1.4-1.3s.8.1,1.1.3c.3.2.4.6.4,1s0,.6-.2.9l-3.8,10.5Z"/>
    <path class="st1" d="M144.6,8c0-.5.1-.8.4-1.1.3-.3.6-.4,1.1-.4s.8.1,1.1.4c.3.3.4.6.4,1.1v10.8c0,.5-.1.8-.4,1.1-.3.3-.6.4-1.1.4s-.8-.1-1.1-.4c-.3-.3-.4-.6-.4-1.1V8Z"/>
    <path class="st1" d="M150.5,8.5c0-.6.2-1.1.5-1.4.3-.3.7-.4,1.3-.4h7.1c.5,0,.9,0,1.1.3.3.2.4.5.4,1s-.1.8-.4.9c-.3.2-.6.3-1.1.3h-5.9v2.9h5.1c.4,0,.8,0,1,.2.3.2.4.5.4.9s-.1.7-.4.9c-.3.2-.6.3-1,.3h-5.1v3.2h6c.5,0,.9,0,1.1.3.3.2.4.5.4,1s-.1.8-.4.9c-.3.2-.6.3-1.1.3h-7.3c-.6,0-1-.1-1.3-.4s-.5-.7-.5-1.4v-9.8Z"/>
    <path class="st1" d="M175.9,18.8c-.1.5-.3.9-.6,1.1s-.7.3-1.2.3-1-.1-1.2-.4-.5-.6-.6-1.1l-2-8.1h0l-2,8.1c-.1.5-.3.9-.6,1.1s-.7.4-1.2.4-.9-.1-1.2-.3-.5-.6-.6-1.1l-2.6-10.1c0-.4-.1-.7-.1-.9,0-.4.1-.8.4-1,.3-.2.6-.4,1-.4.8,0,1.3.4,1.4,1.2l1.8,8.8h0l2.1-9c0-.4.2-.7.5-.9.2-.2.6-.3,1.1-.3s1,.1,1.2.4c.2.2.4.6.5,1.1l2,8.6h0l1.8-8.8c.2-.8.6-1.2,1.4-1.2s.7.1,1,.4c.3.2.4.6.4,1s0,.5-.1.9l-2.6,10.1Z"/>
  </g>
  <g>
    <path class="st0" d="M109.1,32.2c.3-.8.7-1.6,1.2-2.2.6-.6,1.2-1.1,2.1-1.5.8-.4,1.7-.5,2.8-.5s1.6.1,2.2.3c.7.2,1.2.5,1.7.9.5.4.8.7,1.1,1.1.2.4.4.8.4,1.1,0,.9-.5,1.4-1.4,1.4s-.6,0-.8-.2c-.2-.2-.4-.4-.7-.7-.3-.5-.7-.8-1-1-.3-.2-.9-.4-1.5-.4-1,0-1.8.4-2.5,1.2-.7.8-1,1.9-1,3.3s0,1.2.2,1.8c.1.5.3,1,.6,1.4.3.4.7.7,1.1,1s1,.4,1.6.4,1.1-.1,1.4-.4.7-.6,1-1.1c.3-.4.5-.6.7-.8.2-.2.4-.2.7-.2s.7.1,1,.3c.3.2.4.5.4.9s-.1.9-.4,1.4c-.3.5-.7.9-1.1,1.2-.5.4-1.1.7-1.7.9-.6.2-1.3.3-2,.3-2.1,0-3.7-.6-4.9-1.8-1.2-1.2-1.7-2.9-1.7-5.2s.1-1.8.4-2.7Z"/>
    <path class="st0" d="M122.3,32c.3-.8.7-1.5,1.3-2.2.6-.6,1.3-1.1,2.1-1.4.8-.3,1.8-.5,2.9-.5s2,.2,2.9.5c.8.3,1.5.8,2.1,1.4.6.6,1,1.3,1.3,2.2.3.8.4,1.7.4,2.7s-.1,1.9-.4,2.7c-.3.9-.7,1.6-1.3,2.3s-1.3,1.2-2.1,1.6-1.8.6-2.9.6-2.2-.2-3-.5c-.9-.4-1.6-.9-2.1-1.5-.5-.6-1-1.4-1.2-2.3-.3-.9-.4-1.8-.4-2.8s.1-1.9.4-2.7ZM125.1,36.5c.1.6.3,1.1.6,1.5.3.4.7.8,1.1,1,.5.2,1.1.4,1.8.4s1.2-.1,1.7-.4.9-.6,1.2-1c.3-.4.5-.9.6-1.5s.2-1.2.2-1.8c0-1.3-.3-2.4-.9-3.2-.6-.8-1.5-1.2-2.8-1.2s-2.1.4-2.8,1.2c-.6.8-.9,1.9-.9,3.2s0,1.3.2,1.9Z"/>
    <path class="st0" d="M137.5,29.4c0-.6.2-.9.5-1.2s.7-.3,1.2-.3h.9c.5,0,.8.1,1.1.3.3.2.5.6.6,1.1l2.6,8.5h0l2.6-8.5c.2-.5.4-.9.6-1.1.3-.2.6-.3,1.1-.3h.9c.5,0,.9.1,1.2.3.3.2.5.6.5,1.2v10.8c0,.4-.1.8-.3,1.1-.2.3-.6.4-1,.4s-.8-.1-1-.4c-.2-.3-.3-.6-.3-1.1v-8.2h0l-2.8,8.8c-.2.6-.6.9-1.3.9s-1.1-.3-1.3-.9l-2.8-8.8h0v8.2c0,.4-.1.8-.3,1.1-.2.3-.6.4-1,.4s-.8-.1-1-.4c-.2-.3-.3-.6-.3-1.1v-10.8Z"/>
    <path class="st0" d="M153.9,29.4c0-.6.2-.9.5-1.2s.7-.3,1.2-.3h.9c.5,0,.8.1,1.1.3.3.2.5.6.6,1.1l2.6,8.5h0l2.6-8.5c.2-.5.4-.9.6-1.1.3-.2.6-.3,1.1-.3h.9c.5,0,.9.1,1.2.3.3.2.5.6.5,1.2v10.8c0,.4-.1.8-.3,1.1-.2.3-.6.4-1,.4s-.8-.1-1-.4c-.2-.3-.3-.6-.3-1.1v-8.2h0l-2.8,8.8c-.2.6-.6.9-1.3.9s-1.1-.3-1.3-.9l-2.8-8.8h0v8.2c0,.4-.1.8-.3,1.1-.2.3-.6.4-1,.4s-.8-.1-1-.4c-.2-.3-.3-.6-.3-1.1v-10.8Z"/>
    <path class="st0" d="M170.4,29.5c0-.5.1-.8.4-1.1.3-.3.6-.4,1.1-.4s.8.1,1.1.4c.3.3.4.6.4,1.1v7.3c0,.9.2,1.5.7,2,.5.4,1.2.6,2,.6s1.6-.2,2-.6c.5-.4.7-1.1.7-2v-7.3c0-.5.1-.8.4-1.1.3-.3.6-.4,1.1-.4s.8.1,1.1.4c.3.3.4.6.4,1.1v7c0,1.8-.5,3.1-1.5,4-1,.9-2.4,1.3-4.3,1.3s-3.2-.4-4.3-1.3c-1-.9-1.5-2.2-1.5-4v-7Z"/>
    <path class="st0" d="M184.7,29.7c0-.6.2-1.1.5-1.4.3-.3.8-.4,1.4-.4s1.2.3,1.5.8l5.3,8.6h0v-7.9c0-1,.5-1.5,1.5-1.5s1.5.5,1.5,1.5v10.5c0,.6-.1,1.1-.4,1.4-.3.3-.7.5-1.4.5s-.8,0-1-.2-.4-.3-.6-.6l-5.3-8.3h0v7.7c0,1-.5,1.5-1.5,1.5s-1.5-.5-1.5-1.5v-10.6Z"/>
    <path class="st0" d="M199.2,29.5c0-.5.1-.8.4-1.1.3-.3.6-.4,1.1-.4s.8.1,1.1.4c.3.3.4.6.4,1.1v10.8c0,.5-.1.8-.4,1.1-.3.3-.6.4-1.1.4s-.8-.1-1.1-.4c-.3-.3-.4-.6-.4-1.1v-10.8Z"/>
    <path class="st0" d="M205,32.2c.3-.8.7-1.6,1.2-2.2.6-.6,1.2-1.1,2.1-1.5.8-.4,1.7-.5,2.8-.5s1.6.1,2.2.3c.7.2,1.2.5,1.7.9.5.4.8.7,1.1,1.1.2.4.4.8.4,1.1,0,.9-.5,1.4-1.4,1.4s-.6,0-.8-.2c-.2-.2-.4-.4-.7-.7-.3-.5-.7-.8-1-1-.3-.2-.9-.4-1.5-.4-1,0-1.8.4-2.5,1.2-.7.8-1,1.9-1,3.3s0,1.2.2,1.8c.1.5.3,1,.6,1.4.3.4.7.7,1.1,1s1,.4,1.6.4,1.1-.1,1.4-.4.7-.6,1-1.1c.3-.4.5-.6.7-.8.2-.2.4-.2.7-.2s.7.1,1,.3c.3.2.4.5.4.9s-.1.9-.4,1.4c-.3.5-.7.9-1.1,1.2-.5.4-1.1.7-1.7.9-.6.2-1.3.3-2,.3-2.1,0-3.7-.6-4.9-1.8-1.2-1.2-1.7-2.9-1.7-5.2s.1-1.8.4-2.7Z"/>
    <path class="st0" d="M221.4,28.9c.1-.3.3-.6.5-.7.2-.1.6-.2.9-.2h.7c.4,0,.7,0,1,.2s.5.4.6.9l3.7,10.2c0,.2.1.4.2.6,0,.2,0,.4,0,.5,0,.4-.1.7-.4.9s-.6.4-1,.4c-.7,0-1.2-.3-1.4-.8l-.8-2.2h-4.9l-.8,2.2c-.2.6-.6.8-1.4.8s-.8-.1-1-.4c-.3-.2-.4-.6-.4-1s0-.3,0-.5c0-.2.1-.4.2-.6l3.9-10.4ZM223.2,31.2h0l-1.8,5.3h3.6l-1.7-5.3Z"/>
    <path class="st0" d="M232.6,30.7h-2.9c-.5,0-.8-.1-1.1-.3-.3-.2-.4-.5-.4-.9s.1-.7.4-.9c.3-.2.7-.3,1.1-.3h8.8c.5,0,.8.1,1.1.3s.4.5.4.9-.1.7-.4.9-.7.3-1.1.3h-2.9v9.5c0,.5-.1.8-.4,1.1-.3.3-.6.4-1.1.4s-.8-.1-1.1-.4-.4-.6-.4-1.1v-9.5Z"/>
    <path class="st0" d="M241.7,29.5c0-.5.1-.8.4-1.1.3-.3.6-.4,1.1-.4s.8.1,1.1.4c.3.3.4.6.4,1.1v10.8c0,.5-.1.8-.4,1.1-.3.3-.6.4-1.1.4s-.8-.1-1.1-.4c-.3-.3-.4-.6-.4-1.1v-10.8Z"/>
    <path class="st0" d="M247.4,32c.3-.8.7-1.5,1.3-2.2.6-.6,1.3-1.1,2.1-1.4s1.8-.5,2.9-.5,2,.2,2.9.5,1.5.8,2.1,1.4c.6.6,1,1.3,1.3,2.2.3.8.4,1.7.4,2.7s-.1,1.9-.4,2.7c-.3.9-.7,1.6-1.3,2.3s-1.3,1.2-2.1,1.6-1.8.6-2.9.6-2.2-.2-3-.5c-.9-.4-1.6-.9-2.1-1.5-.5-.6-1-1.4-1.2-2.3-.3-.9-.4-1.8-.4-2.8s.1-1.9.4-2.7ZM250.2,36.5c.1.6.3,1.1.6,1.5.3.4.7.8,1.1,1,.5.2,1.1.4,1.8.4s1.2-.1,1.7-.4.9-.6,1.2-1c.3-.4.5-.9.6-1.5.1-.6.2-1.2.2-1.8,0-1.3-.3-2.4-.9-3.2-.6-.8-1.5-1.2-2.8-1.2s-2.1.4-2.8,1.2c-.6.8-.9,1.9-.9,3.2s0,1.3.2,1.9Z"/>
    <path class="st0" d="M262.6,29.7c0-.6.2-1.1.5-1.4.3-.3.8-.4,1.4-.4s1.2.3,1.5.8l5.3,8.6h0v-7.9c0-1,.5-1.5,1.5-1.5s1.5.5,1.5,1.5v10.5c0,.6-.1,1.1-.4,1.4-.3.3-.7.5-1.4.5s-.8,0-1-.2-.4-.3-.6-.6l-5.3-8.3h0v7.7c0,1-.5,1.5-1.5,1.5s-1.5-.5-1.5-1.5v-10.6Z"/>
  </g>
  <path class="st1" d="M48,34c-5.4,0-9.9-4.4-9.9-9.9s4.4-9.9,9.9-9.9,9.9,4.4,9.9,9.9-4.4,9.9-9.9,9.9ZM48,17c-3.9,0-7.1,3.2-7.1,7.1s3.2,7.1,7.1,7.1,7.1-3.2,7.1-7.1-3.2-7.1-7.1-7.1Z"/>
  <g>
    <path class="st0" d="M36.1,33.3c.2-.4.2-1,0-1.4-1.5-2.3-2.3-5-2.3-7.8,0-7.9,6.4-14.3,14.2-14.3h32.5c.8,0,1.4-.6,1.4-1.4s-.6-1.4-1.4-1.4h-32.5c-9.4,0-17,7.6-17,17s.5,4.9,1.6,7.1h-4.7c-.8-2.3-1.2-4.7-1.2-7.1,0-11.8,9.6-21.4,21.4-21.4h26.2c.8,0,1.4-.6,1.4-1.4S75,0,74.2,0H21.5C20.8,0,20.2.6,20.2,1.4s.6,1.4,1.4,1.4h15.3c-2.2,1.2-4.2,2.7-6,4.4h-15.6c-.8,0-1.4.6-1.4,1.4s.6,1.4,1.4,1.4h13.3c-1,1.4-1.8,2.8-2.5,4.4H8.9c-.8,0-1.4.6-1.4,1.4s.6,1.4,1.4,1.4h16.1c-.6,1.8-.9,3.8-1,5.8H1.4c-.8,0-1.4.6-1.4,1.4s.6,1.4,1.4,1.4h22.5c.1,2,.5,3.9,1,5.8H8.9c-.8,0-1.4.6-1.4,1.4s.6,1.4,1.4,1.4h26c.5,0,1-.3,1.2-.7Z"/>
    <path class="st0" d="M94.7,22.8h-22.5c-.1-2-.5-3.9-1-5.8h16.1c.8,0,1.4-.6,1.4-1.4s-.6-1.4-1.4-1.4h-26c-.5,0-1,.3-1.2.7-.2.4-.2,1,0,1.4,1.5,2.3,2.3,5,2.3,7.8,0,7.9-6.4,14.2-14.2,14.2H15.2c-.8,0-1.4.6-1.4,1.4s.6,1.4,1.4,1.4h32.8c9.4,0,17-7.6,17-17s-.5-4.9-1.6-7.1h4.7c.8,2.3,1.2,4.7,1.2,7.1,0,11.8-9.6,21.4-21.4,21.4h-26.5c-.8,0-1.4.6-1.4,1.4s.6,1.4,1.4,1.4h52.7c.8,0,1.4-.6,1.4-1.4s-.6-1.4-1.4-1.4h-15.1c2.2-1.2,4.3-2.7,6-4.5h16.1c.8,0,1.4-.6,1.4-1.4s-.6-1.4-1.4-1.4h-13.8c1-1.4,1.8-2.8,2.5-4.4h17.1c.8,0,1.4-.6,1.4-1.4s-.6-1.4-1.4-1.4h-16c.6-1.8.9-3.7,1-5.7h22.5c.8,0,1.4-.6,1.4-1.4s-.6-1.4-1.4-1.4Z"/>
  </g>
</svg>