<?xml version="1.0" encoding="UTF-8"?>
<svg id="_레이어_1" data-name="레이어_1" xmlns="http://www.w3.org/2000/svg" version="1.1" viewBox="0 0 20 14">
  <!-- Generator: Adobe Illustrator 29.4.0, SVG Export Plug-In . SVG Version: 2.1.0 Build 152)  -->
  <defs>
    <style>
      .st0 {
        fill: #fff;
      }
    </style>
  </defs>
  <path class="st0" d="M1,0h18c.6,0,1,.4,1,1h0c0,.6-.4,1-1,1H1c-.6,0-1-.4-1-1h0C0,.4.4,0,1,0Z"/>
  <path class="st0" d="M5.2,6h13.8c.6,0,1,.4,1,1h0c0,.6-.4,1-1,1H5.2c-.6,0-1-.4-1-1h0c0-.6.4-1,1-1Z"/>
  <path class="st0" d="M1,12h18c.6,0,1,.4,1,1h0c0,.6-.4,1-1,1H1c-.6,0-1-.4-1-1h0c0-.6.4-1,1-1Z"/>
</svg>